<svg width="13" height="13" viewBox="0 0 13 13" fill="none" xmlns="http://www.w3.org/2000/svg">
<path d="M6.5 0L7.56763 1.47721L9.14379 0.561954L9.51828 2.3457L11.3304 2.15065L10.947 3.9325L12.6819 4.49139L11.6069 5.96325L12.9644 7.17943L11.3837 8.0868L12.1292 9.75L10.316 9.93599L10.3206 11.7586L8.58859 11.1911L7.85143 12.858L6.5 11.635L5.14857 12.858L4.41141 11.1911L2.6794 11.7586L2.68395 9.93599L0.870835 9.75L1.61632 8.0868L0.0356078 7.17943L1.39313 5.96325L0.318133 4.49139L2.05296 3.9325L1.66956 2.15065L3.48172 2.3457L3.85621 0.561954L5.43237 1.47721L6.5 0Z" fill="#3597F0"/>
<path d="M4.3335 6.46315L5.77307 8.125L9.2085 4.875" stroke="white"/>
</svg>
